<?xml version="1.0" encoding="UTF-8"?>
<svg id="Icons" xmlns="http://www.w3.org/2000/svg" viewBox="0 0 50 50">
  <defs>
    <style>
      .cls-1 {
        fill: #fff;
      }

      .cls-1, .cls-2, .cls-3 {
        stroke: #000;
        stroke-linecap: round;
        stroke-linejoin: round;
      }

      .cls-2, .cls-3 {
        fill: none;
      }

      .cls-3 {
        fill-rule: evenodd;
      }
    </style>
  </defs>
  <g>
    <path class="cls-1" d="M17.18,29.22c-.3.01-.6.03-.9.04h0s-2.14-1.66-2.14-1.66c-.71-.55-1.56-.56-2.27-.03l-2.3,1.69c-.3-.01-.6-.02-.9-.04-1.69-.08-3.01-.57-3.01,1.77s.31,6.12.31,6.12c0,0-.19,2.84,3.07,5.23,2.8,2.06,3.87,2.81,3.87,2.81h0s1.08-.75,3.89-2.81c3.26-2.4,3.07-5.23,3.07-5.23,0,0,.31-3.78.31-6.12s-1.32-1.85-3.01-1.77"/>
    <g>
      <polyline class="cls-2" points="15.29 33.18 15.29 33.18 12.22 37.82 10.57 35.63"/>
      <circle class="cls-2" cx="12.93" cy="35.49" r="4.5"/>
    </g>
  </g>
  <g>
    <path class="cls-3" d="M44.47,15.31c-.6,0-1.19.53-1.19,1.21v11.43c0,.68.6,1.21,1.19,1.21.67,0,1.19-.53,1.19-1.21v-11.43c0-.68-.52-1.21-1.19-1.21Z"/>
    <path class="cls-3" d="M12.28,27.02c0-11.43,0-10.5,0-10.5,0-.68-.52-1.21-1.19-1.21s-1.19.53-1.19,1.21v12.43"/>
    <path class="cls-3" d="M18.57,28.97l-1.73-2.13c-.45-.54-.38-1.31.15-1.69.53-.46,1.28-.38,1.66.15l3.09,3.76,3.09-3.76c.45-.61,1.43-.61,1.88,0l3.09,3.76,3.09-3.76c.45-.54,1.36-.61,1.81,0l4.07,4.92c.38.54.3,1.31-.23,1.69-.23.23-.45.31-.75.31s-.68-.15-.9-.46l-3.09-3.76-3.09,3.76c-.23.31-.6.46-.9.46-.38,0-.75-.15-.98-.46l-3.09-3.76-3.01,3.76c-.23.31-.58.46-.94.46s-.72-.15-.94-.46l-.6-.74M22.12,13.56c2.41,0,4.44,2,4.44,4.53s-2.03,4.53-4.44,4.53-4.52-2-4.52-4.53,2.03-4.53,4.52-4.53ZM33.48,13.56c2.41,0,4.44,2,4.44,4.53s-2.03,4.53-4.44,4.53-4.44-2-4.44-4.53,1.96-4.53,4.44-4.53Z"/>
    <path class="cls-3" d="M14.24,27.59l.06-16.82c0-1.09.87-1.98,1.93-1.98h23.17c1.06,0,1.93.89,1.93,1.98l-.09,22.88c0,1.09-.87,1.98-1.93,1.98h-18.97"/>
  </g>
</svg>