<?xml version="1.0" encoding="UTF-8"?>
<svg id="Isolation_Mode" data-name="Isolation Mode" xmlns="http://www.w3.org/2000/svg" viewBox="0 0 50 50">
  <defs>
    <style>
      .cls-1, .cls-2 {
        fill: none;
        stroke: #000;
        stroke-linecap: round;
        stroke-linejoin: round;
      }

      .cls-2 {
        stroke-width: .75px;
      }
    </style>
  </defs>
  <g>
    <path d="M19.050781,14.1875l-.002441,2.381836c-.001953.212891-.042969.374023-.12207.478516-.075684.100586-.18457.150391-.332031.150391-.136719,0-.237305-.048828-.307129-.149414-.073242-.104492-.111328-.265625-.113281-.478516l-.001953-2.382812h-.79541l-.001953,2.382812c0,.202148.029297.385742.086426.542969.058105.161133.141602.298828.248047.408203.10791.111328.237793.196289.38623.251953.147949.057617.315918.085938.499023.085938.194336,0,.370117-.02832.522949-.084961.153809-.056641.286621-.141602.39502-.253906.106934-.110352.189941-.248047.24707-.408203.055664-.158203.083984-.339844.083984-.541992l-.002441-2.382812h-.790039Z"/>
    <path d="M22.922852,16.081055c-.100586-.095703-.222656-.180664-.362305-.25-.135254-.067383-.288086-.126953-.45459-.174805-.106445-.029297-.206055-.061523-.295898-.09668-.084961-.03418-.157227-.071289-.216309-.111328-.054688-.037109-.097168-.079102-.125488-.125-.027344-.043945-.040527-.091797-.040527-.147461,0-.054688.010742-.104492.031738-.150391.020996-.044922.052246-.084961.092773-.118164.04248-.03418.094238-.060547.157715-.081055.131348-.040039.328125-.040039.458496.006836.064453.023438.119141.055664.161621.09668.042969.041992.075684.091797.097168.148438.022461.060547.035645.12793.038086.198242l.002441.056641h.775879v-.058594c0-.165039-.032715-.319336-.097168-.458008s-.155273-.259766-.27002-.360352c-.114258-.100586-.252441-.179688-.410645-.234375-.157715-.054688-.333008-.082031-.521973-.082031-.182617,0-.353516.023438-.508301.070312-.157227.047852-.29541.117188-.411621.206055-.116699.089844-.209961.200195-.276367.328125-.066895.12793-.100586.272461-.100586.429688,0,.161133.034668.306641.102539.432617.066406.123047.156738.232422.268066.326172.109375.09082.237793.168945.380859.233398.137207.0625.287598.117188.446289.160156.118652.032227.220703.067383.304199.106445.077148.035156.141602.076172.189941.120117.045898.041016.077148.084961.095703.130859.019043.047852.02832.099609.02832.154297,0,.053711-.010742.102539-.032715.146484-.020996.042969-.051758.080078-.09375.112305-.041016.032227-.092773.057617-.157227.077148-.139648.041016-.335449.035156-.486328-.00293-.075684-.020508-.141602-.052734-.194824-.094727-.053223-.042969-.09375-.09668-.124023-.164062s-.047363-.151367-.050293-.25l-.001953-.056641h-.780762v.058594c0,.134766.019531.259766.057617.370117.037598.112305.091309.213867.158203.300781.066895.088867.146973.166992.237305.232422.089844.064453.187988.119141.29248.163086.100586.041992.210938.074219.327637.095703.11084.021484.226074.03125.341797.03125.181641,0,.353027-.021484.509766-.06543.158691-.044922.296387-.111328.409668-.198242.116211-.087891.208496-.197266.273438-.323242.065918-.12793.099609-.275391.099609-.4375,0-.152344-.029297-.292969-.086426-.417969s-.137695-.238281-.239258-.333984Z"/>
    <polygon points="24.733887 16.274414 26.174316 16.274414 26.174316 15.623047 24.733887 15.623047 24.733887 14.856445 26.410156 14.856445 26.410156 14.1875 23.936523 14.1875 23.936523 17.811523 26.41748 17.811523 26.41748 17.147461 24.733887 17.147461 24.733887 16.274414"/>
    <path d="M29.330566,16.166992c.08252-.0625.154297-.137695.212891-.22168s.104492-.180664.135742-.287109c.03125-.104492.047363-.224609.047363-.354492,0-.180664-.032227-.342773-.095703-.482422-.063965-.138672-.15625-.256836-.274902-.352539-.118164-.092773-.260742-.163086-.42334-.210938-.161133-.046875-.344238-.070312-.544434-.070312h-1.234375v3.624023h.794922v-1.310547h.41748l.659668,1.310547h.820801v-.089844l-.732422-1.419922c.080078-.040039.151367-.084961.216309-.134766ZM27.94873,14.853516h.439453c.181152,0,.317871.043945.407227.130859.090332.085938.133789.205078.133789.365234,0,.152344-.044922.268555-.137207.355469-.091797.085938-.227051.129883-.401367.129883h-.441895v-.981445Z"/>
    <polygon points="32.041504 16.211914 31.170898 14.1875 30.391113 14.1875 30.391113 17.811523 31.190918 17.811523 31.190918 15.777344 32.067871 17.811523 32.84082 17.811523 32.84082 14.1875 32.043457 14.1875 32.041504 16.211914"/>
    <path d="M34.583008,14.1875l-1.1875,3.624023h.838867l.207031-.732422h.963379l.20459.732422h.838867l-1.165039-3.624023h-.700195ZM35.212891,16.386719h-.571289l.289551-1.014648.281738,1.014648Z"/>
    <polygon points="38.147949 15.336914 37.85791 14.1875 36.912109 14.1875 36.912109 17.811523 37.651855 17.811523 37.651855 16.713867 37.631348 15.595703 37.931152 16.655273 38.354492 16.655273 38.704102 15.498047 38.682617 16.714844 38.682617 17.811523 39.422363 17.811523 39.422363 14.1875 38.478027 14.1875 38.147949 15.336914"/>
    <polygon points="41.013672 17.147461 41.013672 16.274414 42.454102 16.274414 42.454102 15.623047 41.013672 15.623047 41.013672 14.856445 42.689941 14.856445 42.689941 14.1875 40.216309 14.1875 40.216309 17.811523 42.697266 17.811523 42.697266 17.147461 41.013672 17.147461"/>
  </g>
  <g>
    <g>
      <polyline class="cls-1" points="14.007237 19.517705 14.007237 12 46.007237 12 46.007237 19.972829 16.182302 19.972829"/>
      <polyline class="cls-1" points="19.579358 22 46.007237 22 46.007237 30 22.507237 30"/>
    </g>
    <circle class="cls-1" cx="13.242763" cy="28.75" r="9.25"/>
  </g>
  <g>
    <path d="M25.478634,26.501374l-1.025227.650301-.341609-.594905,1.068982-.55115-1.068982-.55115.341609-.606144,1.025227.650301-.055396-1.212289h.694457l-.054995,1.212289,1.013586-.650301.352848.606144-1.068982.55115,1.068982.55115-.352848.594905-1.013586-.650301.054995,1.212289h-.694457l.055396-1.212289Z"/>
    <path d="M29.34712,26.501374l-1.025227.650301-.341609-.594905,1.068982-.55115-1.068982-.55115.341609-.606144,1.025227.650301-.055396-1.212289h.694457l-.054995,1.212289,1.013586-.650301.352848.606144-1.068982.55115,1.068982.55115-.352848.594905-1.013586-.650301.054995,1.212289h-.694457l.055396-1.212289Z"/>
    <path d="M33.215605,26.501374l-1.025227.650301-.341609-.594905,1.068982-.55115-1.068982-.55115.341609-.606144,1.025227.650301-.055396-1.212289h.694457l-.054995,1.212289,1.013586-.650301.352848.606144-1.068982.55115,1.068982.55115-.352848.594905-1.013586-.650301.054995,1.212289h-.694457l.055396-1.212289Z"/>
    <path d="M37.084091,26.501374l-1.025227.650301-.341609-.594905,1.068982-.55115-1.068982-.55115.341609-.606144,1.025227.650301-.055396-1.212289h.694457l-.054995,1.212289,1.013586-.650301.352848.606144-1.068982.55115,1.068982.55115-.352848.594905-1.013586-.650301.054995,1.212289h-.694457l.055396-1.212289Z"/>
    <path d="M40.952176,26.501374l-1.025227.650301-.341609-.594905,1.068982-.55115-1.068982-.55115.341609-.606144,1.025227.650301-.055396-1.212289h.694457l-.054995,1.212289,1.013586-.650301.352848.606144-1.068982.55115,1.068982.55115-.352848.594905-1.013586-.650301.054995,1.212289h-.694457l.055396-1.212289Z"/>
  </g>
  <g>
    <line class="cls-2" x1="12.199042" y1="34.976854" x2="12.199042" y2="32.893419"/>
    <line class="cls-2" x1="14.283935" y1="32.893419" x2="14.283935" y2="34.976854"/>
    <g>
      <circle class="cls-2" cx="10.744081" cy="28.400087" r="1.5"/>
      <circle class="cls-2" cx="15.691556" cy="28.400087" r="1.5"/>
      <path class="cls-2" d="M13.562404,31.683877c.265459,0,.480658-.241345.480658-.539055,0-.264058-.581073-1.084401-.820635-1.084401s-.808912.82485-.808912,1.084401c0,.29771.215199.539055.480658.539055h.668232Z"/>
      <path class="cls-2" d="M10.635372,34.498376c0,.29016,1.166798.525382,2.606116.525382s2.606116-.235221,2.606116-.525382v-2.125816s3.80339.005097,3.195773-4.703261c-.354201-2.744666-2.265858-4.140104-3.798819-4.787278-1.281354-.540953-2.718033-.540933-3.999615-.000563-1.534368.646955-3.448451,2.042379-3.802755,4.787842-.607617,4.708358,3.193184,4.703261,3.193184,4.703261v2.125816Z"/>
    </g>
  </g>
</svg>