<?xml version="1.0" encoding="UTF-8"?>
<svg id="Icons" xmlns="http://www.w3.org/2000/svg" viewBox="0 0 50 50">
  <defs>
    <style>
      .cls-1 {
        fill: none;
        fill-rule: evenodd;
        stroke: #000;
        stroke-miterlimit: 10;
      }
    </style>
  </defs>
  <path class="cls-1" d="M43.666667,17.290326c-.666667,0-1.333333.592305-1.333333,1.353851v12.776963c0,.761544.666667,1.353851,1.333333,1.353851.75,0,1.333333-.592307,1.333333-1.353851v-12.776963c0-.761546-.583333-1.353851-1.333333-1.353851Z"/>
  <path class="cls-1" d="M6.333333,17.290326c-.75,0-1.333333.592305-1.333333,1.353851v12.776963c0,.761544.583333,1.353851,1.333333,1.353851s1.333333-.592307,1.333333-1.353851v-12.776963c0-.761546-.583333-1.353851-1.333333-1.353851Z"/>
  <path class="cls-1" d="M37.01816,35.853707c-.25255.257648-.5051.343523-.841838.343523s-.757663-.171761-1.010217-.515284l-3.451562-4.208185-3.451565,4.208185c-.25255.343523-.673475.515284-1.010213.515284-.420926,0-.841841-.171761-1.094401-.515284l-3.451565-4.208185-3.367377,4.208185c-.5051.687046-1.599501.687046-2.104604,0l-4.461777-5.496408c-.505112-.601171-.420926-1.459976.168364-1.889386.589288-.515293,1.431139-.429406,1.852061.171763l3.451565,4.208185,3.451555-4.208185c.505113-.687056,1.599504-.687056,2.104614,0l3.451565,4.208185,3.451565-4.208185c.50511-.601169,1.515313-.687056,2.020426,0l4.545963,5.496399c.420915.601169.336738,1.459985-.25256,1.889393ZM18.665947,15.328064c2.693902,0,4.966882,2.232914,4.966882,5.067s-2.27298,5.067004-4.966882,5.067004c-2.77808,0-5.051066-2.232917-5.051066-5.067004s2.272987-5.067,5.051066-5.067ZM31.377807,15.328064c2.693902,0,4.966878,2.232914,4.966878,5.067s-2.272976,5.067004-4.966878,5.067004c-2.77809,0-4.966882-2.232917-4.966882-5.067004s2.188792-5.067,4.966882-5.067Z"/>
  <path class="cls-1" d="M37.890194,40H11.984071c-1.185306,0-2.155102-.99377-2.155102-2.208377l.100903-25.583245c0-1.214607.969796-2.208377,2.155102-2.208377h25.906122c1.185306,0,2.155102.99377,2.155102,2.208377l-.100903,25.583245c0,1.214607-.969796,2.208377-2.155102,2.208377Z"/>
</svg>