<?xml version="1.0" encoding="UTF-8"?>
<svg id="Isolation_Mode" data-name="Isolation Mode" xmlns="http://www.w3.org/2000/svg" viewBox="0 0 50 50">
  <defs>
    <style>
      .cls-1, .cls-2, .cls-3, .cls-4, .cls-5 {
        fill: none;
        stroke: #000;
        stroke-linecap: round;
        stroke-linejoin: round;
      }

      .cls-2 {
        stroke-width: .75px;
      }

      .cls-3 {
        stroke-width: .979831px;
      }

      .cls-4 {
        stroke-width: 1.007311px;
      }

      .cls-5 {
        stroke-width: 1.007311px;
      }
    </style>
  </defs>
  <g>
    <rect class="cls-5" x="15" y="28" width="20" height="5"/>
    <rect class="cls-4" x="15" y="35" width="20" height="5"/>
    <rect class="cls-3" x="10" y="5" width="30" height="40"/>
  </g>
  <circle class="cls-1" cx="25" cy="16.684485" r="8"/>
  <circle class="cls-2" cx="22.838951" cy="16.381857" r="1.375"/>
  <circle class="cls-2" cx="27.117849" cy="16.381857" r="1.375"/>
  <line class="cls-2" x1="24.097296" y1="22.069872" x2="24.097296" y2="20.267982"/>
  <line class="cls-2" x1="25.900447" y1="20.267982" x2="25.900447" y2="22.069872"/>
  <path class="cls-2" d="M25.27642,19.221892c.229586,0,.415704-.208731.415704-.46621,0-.228374-.50255-.93786-.709739-.93786s-.6996.713384-.6996.93786c0,.257479.186118.46621.415704.46621h.57793Z"/>
  <path class="cls-2" d="M22.744933,21.656053c0,.250949,1.009123.454384,2.253938.454384s2.253938-.203435,2.253938-.454384v-1.838543s3.289419.004408,2.763912-4.067686c-.306336-2.373765-1.959661-3.58063-3.285465-4.140349-1.108198-.467851-2.350731-.467834-3.459127-.000487-1.327021.559529-2.982444,1.766382-3.28887,4.140836-.525507,4.072094,2.761672,4.067686,2.761672,4.067686v1.838543Z"/>
</svg>